<svg fill="white" viewBox="0 0 268 268" xmlns="http://www.w3.org/2000/svg"><path d="m254 211.22-31.73-21.33a26 26 0 0 1 0-43.24l31.73-21.32a30.8 30.8 0 0 0 13.64-25.6v-68.55a30.85 30.85 0 0 0 -61.31-4.86l-9.76 61.19a30.92 30.92 0 0 0 -6.51-9.6l-14.47-14.49 9.88-6.64a30.84 30.84 0 0 0 -17.2-56.45h-137.09a30.85 30.85 0 0 0 -4.86 61.31l77.51 12.36a26.19 26.19 0 0 1 10 3.84l.4.27a26 26 0 0 1 10.2 13.39c.07.19.13.39.19.58.11.37.22.74.32 1.12s.2.85.29 1.29.13.67.18 1q.12.75.21 1.5l.06.65c0 .69.09 1.38.09 2.09s0 1.39-.09 2.08l-.06.65c-.06.51-.13 1-.21 1.5 0 .34-.11.67-.18 1s-.18.86-.29 1.28-.21.75-.32 1.12c-.06.2-.12.39-.19.58a25.92 25.92 0 0 1 -10.18 13.39l-.4.28a26.18 26.18 0 0 1 -10 3.83l-77.53 12.37a30.84 30.84 0 0 0 -17 52.27l68.55 68.55a30.65 30.65 0 0 0 17.77 8.77h.32l1.07.11h.22.36l.85.05h.76.78.73.84.46a30.61 30.61 0 0 0 19.52-8.94l16.38-16.39a31.86 31.86 0 0 0 .84 3.57 30.69 30.69 0 0 0 29.51 21.86h68.55a30.85 30.85 0 0 0 17.17-56.44zm7.71 33.19a25.91 25.91 0 0 1 -24.91 18.46h-68.53a26 26 0 0 1 -14.53-47.67l31.73-21.32a30.85 30.85 0 0 0 -17.18-56.45c-.94 0-1.89 0-2.85.13a30.81 30.81 0 0 0 -27.63 25.85l-12.37 77.51a26 26 0 0 1 -51.76-4.1v-68.55a26 26 0 0 1 11.52-21.62l31.73-21.32a30.85 30.85 0 0 0 0-51.21l-31.73-21.32a26 26 0 0 1 14.52-47.67h68.55a26.05 26.05 0 0 1 14.53 47.67l-31.74 21.32a30.85 30.85 0 1 0 47.67 30.47l12.36-77.51a26 26 0 0 1 51.77 4.1v68.55a26 26 0 0 1 -11.52 21.61l-31.73 21.33a30.85 30.85 0 0 0 0 51.21l31.73 21.32a25.9 25.9 0 0 1 10.39 29.21z"/></svg>